<svg width="500" height="150" viewBox="0 0 500 150" fill="none" xmlns="http://www.w3.org/2000/svg">
  <!-- Isotipo: Hexágono de Ingeniería -->
  <g id="isotype">
    <path d="M75 10L125 35V85L75 110L25 85V35L75 10Z" fill="white" stroke="#1e293b" stroke-width="2"/>
    <!-- Viga de Acero (Lado Izquierdo) -->
    <path d="M40 45V75L70 90V60L40 45Z" fill="#1e293b"/>
    <path d="M40 45L70 30L100 45V75L70 90L40 75V45Z" fill="#334155" opacity="0.3"/>
    <!-- Circuitos (Lado Derecho - Naranja) -->
    <path d="M75 35L110 52.5V85L75 102.5V35Z" fill="#f97316"/>
    <circle cx="95" cy="55" r="3" fill="white"/>
    <circle cx="105" cy="70" r="3" fill="white"/>
    <path d="M95 55L105 70" stroke="white" stroke-width="2"/>
    <!-- Cursor AEC -->
    <path d="M110 95L125 115L135 105L120 90L140 85L110 95Z" fill="#1e293b"/>
  </g>
  
  <!-- Tipografía: OBRAGO PRO -->
  <g id="text">
    <text x="160" y="75" fill="#1e293b" style="font-family: 'Inter', sans-serif; font-weight: 900; font-size: 54px; letter-spacing: -2px;">OBRAGO</text>
    <text x="160" y="125" fill="#f97316" style="font-family: 'Inter', sans-serif; font-weight: 900; font-size: 54px; letter-spacing: 2px;">PRO</text>
  </g>
</svg>
